#!OML:ASF X:\für Bonn\!DataBase\2005_08_10_Bjorn_Final\c3d\bjorn.ASF
:FULLY-SPECIFIED
:DEGREES
476
root -0.560938 1.32339 23.2168 -462.396 -175.174 375.945
lowerback 33.2495 5.66962 1.36498
upperback 22.6355 1.25901 -1.55787
thorax 8.02106 -2.59776 -3.15701
lowerneck 6.46315 -0.3419 1.19498
upperneck 23.0469 -4.59481 6.31407
head 6.08614 -3.08558 1.5312
rclavicle -4.6118e-014 2.8625e-014
rhumerus -162.1 -154.343 107.936
rradius 21.0751
rwrist -4.19699
rhand -13.5453 10.7644
rfingers 7.12502
rthumb 12.5676 -18.8376
lclavicle -4.6118e-014 2.8625e-014
lhumerus -349.172 -9.40522 -279.297
lradius 18.8614
lwrist -58.2116
lhand -28.4358 -19.1276
lfingers 7.12502
lthumb -1.80681 10.8445
rfemur -29.8717 -22.3756 -12.4484
rtibia 105.814
rfoot 40.6253 17.0723
rtoes -7.106
lfemur -39.5652 5.23753 -11.0201
ltibia 105.405
lfoot 29.2199 9.12329
ltoes 17.8786
477
root -0.563211 1.31896 23.2389 -462.934 -175.331 375.973
lowerback 32.512 5.62476 1.19638
upperback 22.4986 1.35129 -1.67983
thorax 8.12926 -2.47117 -3.20672
lowerneck 6.30996 -0.375808 1.10905
upperneck 23.756 -4.88271 6.54204
head 6.35939 -3.26502 1.59512
rclavicle 4.92986e-014 -5.08889e-014
rhumerus -161.378 -153.482 107.194
rradius 21.2545
rwrist -5.6459
rhand -15.1208 10.121
rfingers 7.12502
rthumb 11.0482 -19.5682
lclavicle 4.92986e-014 -5.08889e-014
lhumerus -348.589 -8.04639 -278.687
lradius 17.0856
lwrist -62.1415
lhand -25.7779 -19.4166
lfingers 7.12502
lthumb 0.760244 10.5618
rfemur -29.2179 -22.2428 -12.6943
rtibia 105.82
rfoot 40.4388 17.1969
rtoes -7.47796
lfemur -38.9172 5.29154 -10.6991
ltibia 105.287
lfoot 29.3232 8.96728
ltoes 18.1194
478
root -0.5644 1.31463 23.2608 -463.447 -175.492 375.984
lowerback 31.7435 5.579 1.03049
upperback 22.364 1.44317 -1.81525
thorax 8.25878 -2.34431 -3.27122
lowerneck 6.08257 -0.404047 0.957503
upperneck 24.4269 -5.17222 6.85606
head 6.63859 -3.43972 1.69648
rclavicle 4.45278e-014 2.22639e-014
rhumerus -160.838 -153.14 106.676
rradius 21.694
rwrist -7.44402
rhand -16.6107 9.42736
rfingers 7.12502
rthumb 9.61093 -20.3334
lclavicle 4.45278e-014 2.22639e-014
lhumerus -348.05 -5.85793 -277.829
lradius 15.3319
lwrist -66.5507
lhand -23.3982 -19.7969
lfingers 7.12502
lthumb 3.05851 10.1609
rfemur -28.6039 -22.1006 -12.9225
rtibia 105.856
rfoot 40.2606 17.2859
rtoes -7.62875
lfemur -38.317 5.35867 -10.3583
ltibia 105.198
lfoot 29.4117 8.82634
ltoes 18.333
479
root -0.566433 1.31055 23.2808 -463.936 -175.653 375.992
lowerback 30.9768 5.51128 0.820499
upperback 22.2005 1.50499 -1.93291
thorax 8.3566 -2.23534 -3.28259
lowerneck 5.7881 -0.368946 0.568783
upperneck 25.0738 -5.39617 7.3294
head 6.92869 -3.58665 1.89247
rclavicle -9.54166e-015 4.13472e-014
rhumerus -160.332 -153.024 106.194
rradius 22.2571
rwrist -9.18751
rhand -18.0473 8.82603
rfingers 7.12502
rthumb 8.22469 -20.9939
lclavicle -9.54166e-015 4.13472e-014
lhumerus -347.607 -2.17007 -276.494
lradius 13.6409
lwrist -72.0375
lhand -21.6123 -20.206
lfingers 7.12502
lthumb 4.78309 9.72001
rfemur -28.0461 -21.9784 -13.1623
rtibia 105.931
rfoot 40.0885 17.3904
rtoes -7.87928
lfemur -37.7533 5.42418 -10.0154
ltibia 105.143
lfoot 29.4531 8.80523
ltoes 19.0003
480
root -0.567842 1.30663 23.3018 -464.414 -175.794 375.98
lowerback 30.2134 5.45387 0.626178
upperback 22.0277 1.58222 -2.09838
thorax 8.45205 -2.11445 -3.35476
lowerneck 5.44724 -0.359785 0.319923
upperneck 25.659 -5.63551 7.7669
head 7.20868 -3.72543 2.05271
rclavicle 1.59028e-014 7.63333e-014
rhumerus -159.953 -153.054 105.7
rradius 22.9541
rwrist -10.977
rhand -19.4752 8.36124
rfingers 7.12502
rthumb 6.84642 -21.5081
lclavicle 1.59028e-014 7.63333e-014
lhumerus -347.117 3.58687 -274.59
lradius 12.0364
lwrist -79.2754
lhand -20.3211 -20.5164
lfingers 7.12502
lthumb 6.02985 9.37782
rfemur -27.5299 -21.8293 -13.4164
rtibia 106.041
rfoot 39.9179 17.4662
rtoes -7.98507
lfemur -37.2189 5.49222 -9.69907
ltibia 105.118
lfoot 29.525 8.68397
ltoes 19.481
481
root -0.570322 1.30354 23.3232 -464.835 -175.949 375.96
lowerback 29.4184 5.36977 0.400801
upperback 21.7789 1.64535 -2.26505
thorax 8.47642 -1.98926 -3.40025
lowerneck 5.09532 -0.374601 0.221715
upperneck 26.2816 -5.84916 7.92547
head 7.49699 -3.85331 2.09591
rclavicle -1.27222e-014 -3.18055e-014
rhumerus -159.781 -153.302 105.325
rradius 23.7538
rwrist -12.6428
rhand -20.8004 7.95998
rfingers 7.12502
rthumb 5.56703 -21.9469
lclavicle -1.27222e-014 -3.18055e-014
lhumerus -346.684 11.1749 -272.217
lradius 10.8119
lwrist -87.962
lhand -19.375 -20.3007
lfingers 7.12502
lthumb 6.94316 9.56544
rfemur -27.1005 -21.6859 -13.6603
rtibia 106.205
rfoot 39.7324 17.5123
rtoes -8.02364
lfemur -36.7632 5.55401 -9.36799
ltibia 105.138
lfoot 29.5787 8.63305
ltoes 20.2037
482
root -0.571702 1.30063 23.344 -465.235 -176.081 375.916
lowerback 28.6522 5.2949 0.153301
upperback 21.492 1.71744 -2.46869
thorax 8.45294 -1.85812 -3.471
lowerneck 4.82843 -0.435646 0.300923
upperneck 26.7252 -6.05934 7.96175
head 7.70655 -3.96648 2.0708
rclavicle -3.81667e-014 1.09729e-013
rhumerus -159.734 -153.577 104.926
rradius 24.6529
rwrist -14.0567
rhand -21.8956 7.5274
rfingers 7.12502
rthumb 4.50959 -22.4046
lclavicle -3.81667e-014 1.09729e-013
lhumerus -346.174 19.4459 -269.73
lradius 10.1276
lwrist -97.0922
lhand -18.6656 -19.5295
lfingers 7.12502
lthumb 7.62788 10.3129
rfemur -26.7603 -21.5235 -13.9413
rtibia 106.453
rfoot 39.5522 17.5569
rtoes -7.98984
lfemur -36.3244 5.6277 -9.05864
ltibia 105.183
lfoot 29.6125 8.54426
ltoes 20.7008
483
root -0.573892 1.29831 23.364 -465.597 -176.211 375.886
lowerback 27.9479 5.1878 -0.143789
upperback 21.101 1.75866 -2.65667
thorax 8.28594 -1.73526 -3.48238
lowerneck 5.01413 -0.546063 0.371829
upperneck 26.7301 -6.21819 7.89639
head 7.68205 -4.06738 2.02986
rclavicle -9.54166e-015 1.01778e-013
rhumerus -159.887 -153.982 104.668
rradius 25.6473
rwrist -15.031
rhand -22.7104 7.05697
rfingers 7.12502
rthumb 3.72274 -22.8903
lclavicle -9.54166e-015 1.01778e-013
lhumerus -345.868 26.8512 -267.593
lradius 10.0112
lwrist -105.098
lhand -18.1946 -18.4917
lfingers 7.12502
lthumb 8.08249 11.3338
rfemur -26.47 -21.3934 -14.2366
rtibia 106.725
rfoot 39.4189 17.6173
rtoes -7.87132
lfemur -35.9625 5.6749 -8.76294
ltibia 105.278
lfoot 29.6432 8.43327
ltoes 21.1889
